<?xml version="1.0" standalone="no"?>
<!DOCTYPE svg PUBLIC "-//W3C//DTD SVG 20010904//EN"
 "http://www.w3.org/TR/2001/REC-SVG-20010904/DTD/svg10.dtd">
<svg version="1.0" xmlns="http://www.w3.org/2000/svg"
 width="500.000000pt" height="500.000000pt" viewBox="0 0 500.000000 500.000000"
 preserveAspectRatio="xMidYMid meet">

<g transform="translate(0.000000,500.000000) scale(0.100000,-0.100000)"
fill="#000000" stroke="none">
<path d="M2770 4961 c5 -11 15 -23 20 -26 6 -4 8 -15 5 -25 -4 -13 1 -22 14
-30 21 -10 46 -48 39 -56 -3 -2 -45 -8 -94 -13 -91 -10 -178 -40 -258 -89 -33
-20 -47 -23 -88 -18 -26 3 -70 9 -96 12 -63 8 -146 -14 -267 -70 -127 -60
-157 -85 -262 -224 -113 -149 -144 -200 -194 -320 -22 -53 -51 -122 -65 -152
-28 -62 -44 -140 -44 -210 0 -27 -9 -69 -21 -95 -54 -122 -63 -171 -64 -355
l-1 -175 -32 -50 c-90 -142 -135 -443 -96 -638 12 -56 13 -86 7 -97 -6 -8 -14
-30 -17 -48 -4 -17 -12 -34 -17 -37 -5 -4 -6 1 -3 9 3 9 2 16 -4 16 -19 0 -42
-12 -42 -22 0 -7 5 -6 14 1 11 9 15 7 19 -9 4 -14 -6 -29 -33 -54 -21 -19 -36
-37 -32 -40 3 -3 -3 -6 -13 -6 -10 0 -24 -8 -31 -17 -13 -17 -14 -17 -7 2 6
20 6 20 -16 1 -12 -11 -20 -25 -17 -32 3 -7 -3 -18 -12 -26 -15 -12 -16 -11
-3 5 16 21 13 21 -30 3 -23 -10 -41 -11 -58 -5 -19 8 -28 5 -43 -11 -10 -11
-25 -20 -33 -20 -21 0 -19 -28 3 -33 13 -4 11 -5 -5 -6 -13 0 -23 3 -23 8 0
16 -53 -2 -57 -20 -8 -28 -118 -27 -147 0 -12 11 -43 23 -73 27 l-53 7 0 -32
c0 -31 1 -31 51 -31 31 0 48 -4 44 -10 -3 -5 -26 -10 -51 -10 -24 0 -44 -4
-44 -10 0 -15 -97 -13 -102 3 -3 6 -4 32 -2 57 4 68 -1 77 -53 85 -37 5 -48 3
-55 -9 -5 -9 -15 -16 -23 -16 -7 0 -16 -6 -18 -12 -4 -8 -8 -5 -12 9 -4 12
-13 24 -21 27 -7 3 -11 12 -8 19 3 9 -6 19 -26 27 -20 8 -27 16 -19 20 17 11
-36 44 -60 37 -12 -3 -22 1 -25 9 -3 8 -17 14 -31 14 -14 0 -28 7 -31 15 -4 8
-13 15 -21 15 -11 0 -13 -10 -8 -47 31 -236 122 -546 222 -754 171 -357 439
-689 738 -916 173 -131 399 -259 593 -337 l63 -25 10 27 c6 15 20 50 30 79 34
89 167 202 240 203 37 0 125 -37 182 -77 26 -19 78 -50 115 -69 60 -32 73 -36
123 -31 148 13 252 112 304 290 9 31 19 57 21 57 3 0 51 -34 107 -76 141 -106
308 -180 499 -221 110 -23 380 -24 451 0 73 23 357 215 357 240 0 6 -38 48
-85 94 -47 46 -85 86 -85 88 0 11 48 28 73 27 35 -3 194 -48 226 -64 22 -12
29 -7 114 81 392 410 635 977 666 1556 39 727 -215 1393 -728 1906 -377 377
-848 620 -1354 700 -154 24 -150 24 -137 0z m-2617 -2848 c-7 -2 -19 -2 -25 0
-7 3 -2 5 12 5 14 0 19 -2 13 -5z m892 -62 c3 -5 2 -12 -3 -15 -5 -3 -9 1 -9
9 0 17 3 19 12 6z m-92 -186 c-3 -9 -8 -14 -10 -11 -3 3 -2 9 2 15 9 16 15 13
8 -4z"/>
<path d="M70 3085 c0 -5 5 -17 10 -25 5 -8 10 -10 10 -5 0 6 -5 17 -10 25 -5
8 -10 11 -10 5z"/>
<path d="M130 2943 c0 -7 7 -21 14 -30 8 -10 24 -29 35 -43 11 -14 20 -19 21
-12 0 6 -4 12 -10 12 -5 0 -10 5 -10 10 0 6 -5 16 -10 23 -6 7 -17 21 -25 32
-8 11 -15 14 -15 8z"/>
<path d="M295 2735 c52 -45 66 -45 16 0 -21 19 -42 35 -47 35 -5 0 9 -16 31
-35z"/>
<path d="M695 2517 c57 -38 95 -58 95 -48 0 5 -23 21 -51 35 -55 28 -75 34
-44 13z"/>
<path d="M890 2431 c20 -11 117 -25 107 -15 -4 4 -15 9 -25 10 -9 1 -35 4 -57
8 -24 3 -34 2 -25 -3z"/>
<path d="M1130 2361 c0 -12 78 -28 92 -20 7 5 9 9 3 9 -5 1 -29 5 -52 9 -24 5
-43 5 -43 2z"/>
<path d="M1230 2290 c0 -5 5 -10 10 -10 6 0 10 5 10 10 0 6 -4 10 -10 10 -5 0
-10 -4 -10 -10z"/>
<path d="M1194 2208 l-19 -23 23 19 c21 18 27 26 19 26 -2 0 -12 -10 -23 -22z"/>
<path d="M125 2200 c-4 -6 7 -10 27 -10 25 0 29 3 18 10 -19 13 -37 13 -45 0z"/>
<path d="M1130 2175 c0 -9 -6 -12 -15 -9 -8 4 -15 2 -15 -3 0 -20 14 -22 32
-6 20 18 24 33 8 33 -5 0 -10 -7 -10 -15z"/>
<path d="M1030 2099 c0 -5 5 -7 10 -4 6 3 10 8 10 11 0 2 -4 4 -10 4 -5 0 -10
-5 -10 -11z"/>
</g>
</svg>
