<?xml version="1.0" standalone="no"?>
<!DOCTYPE svg PUBLIC "-//W3C//DTD SVG 20010904//EN"
 "http://www.w3.org/TR/2001/REC-SVG-20010904/DTD/svg10.dtd">
<svg version="1.0" xmlns="http://www.w3.org/2000/svg"
 width="1366.000000pt" height="768.000000pt" viewBox="0 0 1366.000000 768.000000"
 preserveAspectRatio="xMidYMid meet">

<g transform="translate(0.000000,768.000000) scale(0.100000,-0.100000)"
fill="#000000" stroke="none">
<path d="M1002 7605 c-204 -285 -345 -620 -396 -943 -61 -379 -2 -629 198
-840 128 -135 275 -239 493 -346 216 -107 367 -151 560 -165 414 -31 817 138
1368 575 574 454 815 599 1134 681 87 22 129 27 236 27 152 1 207 -10 324 -66
188 -89 346 -312 398 -558 23 -114 23 -333 0 -453 -53 -264 -176 -512 -387
-777 -46 -58 -244 -267 -440 -465 -353 -358 -472 -487 -587 -640 -313 -414
-427 -819 -344 -1221 84 -408 371 -666 836 -756 98 -18 163 -22 595 -28 494
-8 573 -14 729 -55 298 -77 525 -269 606 -509 34 -100 35 -212 4 -326 -35
-132 -196 -441 -341 -657 -26 -40 -48 -75 -48 -78 0 -3 19 -5 43 -5 l43 0 76
123 c293 468 375 736 297 969 -62 189 -238 375 -449 478 -225 109 -483 145
-940 134 -595 -16 -917 65 -1140 286 -90 89 -149 176 -190 283 -55 142 -64
196 -64 392 0 162 2 191 26 285 57 225 144 401 310 627 106 145 187 233 568
618 457 462 597 635 725 893 105 211 152 389 162 602 9 211 -23 382 -99 535
-76 152 -214 298 -343 362 -137 69 -179 78 -360 78 -143 0 -171 -3 -263 -28
-189 -51 -404 -147 -582 -260 -96 -61 -379 -271 -590 -437 -478 -377 -824
-541 -1176 -557 -203 -9 -354 22 -584 121 -211 92 -391 206 -516 331 -103 102
-162 194 -202 312 -24 73 -26 91 -27 263 0 217 16 312 95 551 77 234 184 441
330 639 l60 80 -48 0 -47 0 -53 -75z"/>
<path d="M7049 7598 c-222 -345 -351 -751 -352 -1103 0 -292 88 -486 308 -675
117 -100 230 -173 410 -260 418 -204 754 -222 1160 -60 250 99 451 229 900
580 236 184 490 359 620 427 109 56 261 116 370 144 76 20 114 24 250 24 150
0 165 -2 240 -28 230 -82 397 -283 467 -565 32 -125 31 -363 -1 -512 -55 -256
-176 -491 -392 -760 -46 -58 -257 -280 -469 -495 -468 -473 -601 -634 -734
-886 -127 -241 -177 -432 -177 -679 0 -129 5 -173 25 -262 82 -354 293 -578
656 -696 196 -64 395 -82 900 -82 340 0 449 -10 616 -55 338 -90 574 -323 614
-607 12 -83 1 -168 -37 -278 -45 -134 -218 -446 -369 -669 -35 -51 -64 -95
-64 -97 0 -2 20 -4 44 -4 l44 0 75 113 c277 418 398 709 384 921 -18 290 -264
564 -608 676 -193 63 -275 72 -799 80 -417 7 -489 10 -593 29 -431 77 -686
291 -785 660 -22 84 -25 117 -26 266 0 130 4 190 18 255 83 384 335 753 852
1247 666 637 905 1039 921 1553 4 143 2 179 -17 270 -40 196 -112 331 -250
471 -75 76 -112 104 -175 136 -131 66 -187 78 -360 77 -133 -1 -163 -5 -266
-32 -208 -54 -446 -167 -653 -309 -107 -73 -306 -224 -546 -414 -235 -185
-516 -358 -706 -433 -394 -156 -705 -136 -1118 71 -185 92 -315 181 -422 288
-103 102 -162 194 -202 312 -24 72 -26 92 -26 258 -1 151 3 197 22 285 63 295
180 578 329 798 35 51 63 95 63 98 0 2 -20 4 -44 4 l-44 0 -53 -82z"/>
<path d="M6905 6733 c-14 -36 -18 -251 -6 -315 19 -98 63 -178 129 -240 88
-81 187 -103 180 -40 -2 21 -11 30 -42 40 -144 47 -221 224 -197 454 6 62 6
97 -1 106 -15 18 -55 15 -63 -5z"/>
<path d="M800 6655 c-19 -23 -26 -248 -10 -327 6 -35 24 -88 38 -118 68 -145
272 -261 272 -154 0 19 -8 25 -41 34 -49 14 -132 87 -161 143 -36 71 -50 171
-43 295 5 83 4 116 -5 127 -16 19 -34 19 -50 0z"/>
<path d="M10477 6461 c-75 -8 -90 -18 -85 -52 l3 -24 135 4 c152 4 226 -7 310
-47 70 -33 149 -112 182 -182 30 -63 52 -171 43 -207 -12 -50 17 -83 56 -63
30 16 27 139 -6 237 -54 159 -168 268 -332 316 -65 19 -215 28 -306 18z"/>
<path d="M4332 6370 c-38 -6 -61 -21 -62 -41 0 -15 41 -41 57 -35 9 4 73 7
142 7 186 0 293 -39 380 -137 66 -76 93 -144 100 -253 5 -74 10 -96 24 -105
57 -36 77 97 32 229 -14 41 -37 94 -51 117 -66 104 -187 185 -321 213 -70 15
-225 18 -301 5z"/>
<path d="M6877 5316 c-96 -35 -154 -97 -247 -266 -29 -52 -65 -114 -81 -137
-69 -100 -219 -198 -427 -277 -213 -82 -295 -150 -321 -268 -9 -38 -6 -70 15
-185 23 -120 25 -146 15 -202 -12 -78 -65 -189 -172 -368 -126 -207 -175 -354
-166 -493 8 -136 61 -236 159 -303 103 -71 211 -94 498 -107 298 -13 387 -42
540 -175 96 -84 165 -130 215 -144 140 -39 346 26 494 155 89 78 136 136 181
229 62 125 74 185 67 351 -8 226 7 267 131 347 83 54 133 104 184 181 75 115
98 254 58 358 -41 108 -22 168 106 339 89 117 123 186 131 263 17 161 -93 323
-250 372 -29 8 -122 20 -207 25 -237 15 -297 36 -480 167 -188 134 -330 178
-443 138z m255 -48 c40 -19 123 -72 183 -117 185 -137 247 -159 485 -171 201
-11 259 -29 331 -107 68 -73 91 -130 90 -227 0 -88 -28 -152 -117 -276 -126
-174 -148 -249 -103 -362 17 -43 20 -68 17 -130 -4 -66 -11 -91 -47 -163 -47
-95 -132 -195 -192 -226 -59 -30 -110 -80 -132 -127 -16 -38 -19 -67 -18 -215
1 -197 -8 -250 -67 -361 -44 -85 -187 -233 -275 -285 -133 -78 -287 -109 -383
-77 -29 9 -81 42 -124 77 -259 210 -301 225 -670 239 -136 5 -240 14 -284 24
-142 34 -244 113 -287 225 -18 44 -23 78 -23 161 -1 156 26 229 174 470 174
283 201 378 161 557 -56 247 -4 323 302 439 270 103 380 198 503 432 59 114
140 206 209 239 74 35 167 29 267 -19z"/>
<path d="M28 2834 c-5 -4 -8 -643 -8 -1421 l0 -1413 50 0 50 0 0 1376 0 1376
99 -4 c64 -2 105 -8 115 -17 15 -13 16 -54 14 -436 l-3 -421 29 -38 c36 -48
77 -73 141 -86 27 -5 187 -17 355 -25 168 -8 333 -20 367 -25 144 -24 276 -84
341 -157 77 -86 111 -221 78 -307 -25 -65 -68 -101 -186 -158 -163 -79 -239
-164 -240 -266 0 -61 20 -102 76 -151 81 -72 196 -122 334 -146 68 -13 131
-14 310 -9 249 7 304 0 403 -53 74 -41 111 -90 142 -191 42 -136 46 -146 74
-187 51 -75 53 -76 266 -73 l190 3 -50 18 c-27 10 -96 24 -153 33 -57 8 -116
21 -132 29 -38 20 -63 64 -95 170 -49 164 -109 241 -228 295 -107 47 -148 52
-456 54 -284 1 -286 2 -359 28 -142 53 -232 120 -232 174 0 64 51 115 180 179
130 64 189 111 225 176 28 50 30 62 30 154 0 95 -2 104 -37 178 -65 136 -173
220 -348 270 -110 32 -228 44 -530 57 -275 12 -339 21 -378 55 l-27 23 0 149
c0 81 2 268 3 415 3 296 2 305 -60 350 -31 21 -45 23 -188 26 -85 2 -158 0
-162 -4z"/>
<path d="M9923 2793 c-31 -21 -44 -308 -18 -408 47 -181 148 -274 354 -326 91
-23 129 -22 145 3 17 27 -9 45 -90 62 -129 27 -184 53 -246 116 -46 47 -61 71
-79 126 -22 71 -22 67 -15 369 1 53 -1 60 -19 63 -11 1 -25 -1 -32 -5z"/>
<path d="M3799 2683 c-18 -45 -24 -311 -9 -374 47 -203 180 -311 436 -353 31
-6 45 -3 57 8 20 20 10 55 -17 60 -172 34 -238 59 -299 115 -95 88 -128 219
-107 426 6 68 9 129 5 134 -3 6 -17 11 -31 11 -17 0 -28 -8 -35 -27z"/>
<path d="M11967 437 c-15 -11 -277 -420 -277 -432 0 -3 19 -5 43 -5 l42 1 120
191 c66 105 121 202 123 214 4 29 -28 49 -51 31z"/>
<path d="M5848 343 c-16 -18 -188 -286 -208 -324 -10 -17 -7 -19 33 -19 l44 0
96 154 c54 84 97 160 97 168 0 17 -20 38 -35 38 -7 0 -19 -8 -27 -17z"/>
</g>
</svg>
